<?xml version="1.0" encoding="UTF-8"?>
<svg version="1.1" xmlns="http://www.w3.org/2000/svg" width="1800" height="1800">
<path d="M0 0 C1.44289982 -0.00416297 1.44289982 -0.00416297 2.91494914 -0.00841005 C4.49249335 -0.00535554 4.49249335 -0.00535554 6.10190714 -0.00223933 C7.22932309 -0.00401434 8.35673904 -0.00578935 9.51831911 -0.00761814 C13.33107497 -0.01238383 17.14379341 -0.00997893 20.95655108 -0.00765924 C23.71551732 -0.00905658 26.47448152 -0.01195862 29.23344661 -0.01478721 C35.26900275 -0.02016711 41.3045511 -0.02180348 47.34010946 -0.02103646 C56.37572743 -0.01990247 65.4113363 -0.02447757 74.44695223 -0.0301673 C89.84467392 -0.03968645 105.24239379 -0.04438768 120.64011813 -0.04647664 C136.25081185 -0.04860381 151.86150277 -0.05286047 167.47219516 -0.05971937 C168.45710575 -0.06014998 169.44201634 -0.06058059 170.45677271 -0.06102426 C174.46798585 -0.06278257 178.47919899 -0.06455221 182.49041212 -0.06633728 C231.14285271 -0.08794638 279.79529386 -0.09881742 328.44773815 -0.10781351 C344.22287632 -0.11074676 359.99801435 -0.11411655 375.77315236 -0.11778073 C376.88578145 -0.11803902 377.99841055 -0.11829731 379.14475568 -0.11856343 C383.64591578 -0.11960963 388.14707588 -0.12065805 392.64823598 -0.12170925 C469.64228664 -0.13967457 546.63633752 -0.15505427 623.63038997 -0.16246828 C629.67926323 -0.16305225 635.72813648 -0.16364952 641.77700974 -0.1642459 C643.57688349 -0.16442308 643.57688349 -0.16442308 645.41311833 -0.16460384 C657.57014313 -0.16580124 669.72716794 -0.16700999 681.88419274 -0.16823637 C684.32172962 -0.1684816 686.75926651 -0.16872546 689.1968034 -0.16896794 C767.48775783 -0.17675829 845.77869727 -0.19914268 924.06964514 -0.23164436 C980.31689043 -0.25498696 1036.56413274 -0.27654031 1092.81138278 -0.28365068 C1093.96790887 -0.2837977 1095.12443496 -0.28394472 1096.3160073 -0.2840962 C1121.70361872 -0.28728088 1147.09123011 -0.28933187 1172.4788417 -0.29032374 C1182.69361189 -0.29073849 1192.90838208 -0.29129339 1203.12315226 -0.29188566 C1204.24110724 -0.29194632 1205.35906222 -0.29200699 1206.51089462 -0.2920695 C1242.53598177 -0.29408623 1278.56105123 -0.30833014 1314.5861322 -0.32883066 C1350.86909549 -0.34940472 1387.15203834 -0.3573093 1423.43500688 -0.34775289 C1428.44788487 -0.34643442 1433.46076288 -0.34525638 1438.47364093 -0.34416227 C1439.45631154 -0.34394242 1440.43898215 -0.34372257 1441.45143065 -0.34349606 C1457.01646516 -0.34038073 1472.58146059 -0.35071217 1488.14648604 -0.36663782 C1503.4487681 -0.38201612 1518.75099606 -0.38314736 1534.05327999 -0.36908958 C1543.02621627 -0.36127494 1551.99898732 -0.36440519 1560.97190712 -0.38372674 C1566.9328699 -0.39546892 1572.89371209 -0.39267245 1578.85466836 -0.3781121 C1582.2328322 -0.37026597 1585.6104105 -0.3707614 1588.98859314 -0.38473114 C1614.14047019 -0.48197518 1633.31908404 3.09256354 1652.2432046 21.14218684 C1662.85238898 32.26638017 1671.25074438 48.38712439 1671.25648519 63.99663849 C1671.25926051 64.9585717 1671.26203582 65.92050492 1671.26489524 66.91158763 C1671.2628589 67.96328377 1671.26082256 69.01497991 1671.25872452 70.09854563 C1671.26049953 71.22596158 1671.26227454 72.35337753 1671.26410334 73.5149576 C1671.26886902 77.32771346 1671.26646412 81.1404319 1671.26414443 84.95318957 C1671.26554177 87.71215581 1671.26844381 90.47112 1671.2712724 93.23008509 C1671.2766523 99.26564124 1671.27828867 105.30118959 1671.27752165 111.33674795 C1671.27638766 120.37236592 1671.28096276 129.40797479 1671.28665249 138.44359072 C1671.29617164 153.84131241 1671.30087287 169.23903228 1671.30296183 184.63675662 C1671.305089 200.24745034 1671.30934566 215.85814126 1671.31620456 231.46883364 C1671.31663517 232.45374424 1671.31706578 233.43865483 1671.31750945 234.4534112 C1671.31926776 238.46462434 1671.3210374 242.47583748 1671.32282247 246.48705061 C1671.34443157 295.1394912 1671.35530261 343.79193234 1671.3642987 392.44437664 C1671.36723195 408.2195148 1671.37060174 423.99465283 1671.37426592 439.76979085 C1671.37452421 440.88241994 1671.3747825 441.99504904 1671.37504862 443.14139416 C1671.37609482 447.64255427 1671.37714324 452.14371437 1671.37819444 456.64487447 C1671.39615976 533.63892513 1671.41153946 610.632976 1671.41895347 687.62702846 C1671.41953744 693.67590172 1671.42013471 699.72477497 1671.42073109 705.77364823 C1671.42084921 706.97356406 1671.42096733 708.1734799 1671.42108903 709.40975682 C1671.42228643 721.56678162 1671.42349518 733.72380642 1671.42472156 745.88083123 C1671.42496679 748.31836811 1671.42521065 750.755905 1671.42545313 753.19344188 C1671.43324348 831.48439631 1671.45562787 909.77533575 1671.48812955 988.06628363 C1671.51147216 1044.31352892 1671.5330255 1100.56077122 1671.54013587 1156.80802127 C1671.54028289 1157.96454736 1671.54042991 1159.12107345 1671.54058139 1160.31264579 C1671.54376608 1185.7002572 1671.54581706 1211.08786859 1671.54680893 1236.47548019 C1671.54722368 1246.69025038 1671.54777858 1256.90502057 1671.54837085 1267.11979075 C1671.54846185 1268.79672322 1671.54846185 1268.79672322 1671.54855469 1270.50753311 C1671.55057142 1306.53262025 1671.56481533 1342.55768972 1671.58531585 1378.58277069 C1671.60588991 1414.86573398 1671.61379449 1451.14867683 1671.60423808 1487.43164537 C1671.60291961 1492.44452336 1671.60174157 1497.45740137 1671.60064746 1502.47027941 C1671.60042761 1503.45295002 1671.60020776 1504.43562063 1671.59998125 1505.44806914 C1671.59686592 1521.01310365 1671.60719736 1536.57809908 1671.62312301 1552.14312453 C1671.63850131 1567.44540659 1671.63963255 1582.74763455 1671.62557477 1598.04991848 C1671.61776013 1607.02285476 1671.62089038 1615.99562581 1671.64021193 1624.9685456 C1671.65195411 1630.92950839 1671.64915764 1636.89035058 1671.63459729 1642.85130685 C1671.62675116 1646.22947069 1671.62724659 1649.60704899 1671.64121633 1652.98523163 C1671.73846037 1678.13710868 1668.16392166 1697.31572253 1650.11429835 1716.23984309 C1638.99010502 1726.84902747 1622.8693608 1735.24738287 1607.2598467 1735.25312368 C1606.29791349 1735.25589899 1605.33598027 1735.25867431 1604.34489756 1735.26153372 C1603.29320142 1735.25949739 1602.24150528 1735.25746105 1601.15793956 1735.25536301 C1600.03052361 1735.25713802 1598.90310766 1735.25891303 1597.74152759 1735.26074182 C1593.92877173 1735.26550751 1590.11605329 1735.2631026 1586.30329562 1735.26078292 C1583.54432938 1735.26218026 1580.78536519 1735.2650823 1578.0264001 1735.26791089 C1571.99084395 1735.27329079 1565.9552956 1735.27492715 1559.91973724 1735.27416014 C1550.88411927 1735.27302615 1541.8485104 1735.27760125 1532.81289447 1735.28329098 C1517.41517278 1735.29281013 1502.01745291 1735.29751136 1486.61972857 1735.29960032 C1471.00903485 1735.30172749 1455.39834393 1735.30598414 1439.78765155 1735.31284304 C1438.80274095 1735.31327366 1437.81783036 1735.31370427 1436.80307399 1735.31414793 C1432.79186085 1735.31590625 1428.78064771 1735.31767589 1424.76943458 1735.31946095 C1376.11699399 1735.34107006 1327.46455285 1735.35194109 1278.81210855 1735.36093719 C1263.03697039 1735.36387043 1247.26183236 1735.36724022 1231.48669434 1735.3709044 C1230.37406525 1735.3711627 1229.26143615 1735.37142099 1228.11509103 1735.3716871 C1223.61393092 1735.37273331 1219.11277082 1735.37378173 1214.61161072 1735.37483293 C1137.61756006 1735.39279825 1060.62350919 1735.40817794 983.62945673 1735.41559196 C977.58058347 1735.41617593 971.53171022 1735.4167732 965.48283696 1735.41736957 C963.68296321 1735.41754675 963.68296321 1735.41754675 961.84672837 1735.41772751 C949.68970357 1735.41892492 937.53267877 1735.42013367 925.37565396 1735.42136005 C922.93811708 1735.42160528 920.50058019 1735.42184914 918.06304331 1735.42209161 C839.77208888 1735.42988197 761.48114944 1735.45226635 683.19020156 1735.48476804 C626.94295627 1735.50811064 570.69571397 1735.52966399 514.44846392 1735.53677436 C512.71367479 1735.53699489 512.71367479 1735.53699489 510.9438394 1735.53721987 C485.55622799 1735.54040456 460.1686166 1735.54245555 434.781005 1735.54344742 C424.56623481 1735.54386217 414.35146462 1735.54441707 404.13669444 1735.54500933 C403.01873946 1735.54507 401.90078448 1735.54513067 400.74895208 1735.54519318 C364.72386494 1735.54720991 328.69879547 1735.56145382 292.6737145 1735.58195434 C256.39075121 1735.60252839 220.10780836 1735.61043298 183.82483982 1735.60087657 C178.81196183 1735.5995581 173.79908382 1735.59838006 168.78620578 1735.59728594 C167.31219986 1735.59695617 167.31219986 1735.59695617 165.80841605 1735.59661974 C150.24338154 1735.59350441 134.67838611 1735.60383585 119.11336066 1735.61976149 C103.8110786 1735.6351398 88.50885064 1735.63627103 73.20656671 1735.62221326 C64.23363044 1735.61439861 55.26085938 1735.61752886 46.28793959 1735.63685042 C40.3269768 1735.6485926 34.36613461 1735.64579613 28.40517834 1735.63123578 C25.0270145 1735.62338965 21.6494362 1735.62388508 18.27125356 1735.63785481 C-6.88062349 1735.73509886 -26.05923734 1732.16056014 -44.9833579 1714.11093684 C-55.59254228 1702.98674351 -63.99089768 1686.86599928 -63.99663849 1671.25648519 C-63.9994138 1670.29455197 -64.00218912 1669.33261876 -64.00504853 1668.34153605 C-64.0030122 1667.28983991 -64.00097586 1666.23814377 -63.99887782 1665.15457805 C-64.00154033 1663.46345413 -64.00154033 1663.46345413 -64.00425663 1661.73816608 C-64.00902232 1657.92541022 -64.00661741 1654.11269178 -64.00429773 1650.29993411 C-64.00569507 1647.54096787 -64.00859711 1644.78200367 -64.0114257 1642.02303858 C-64.0168056 1635.98748244 -64.01844196 1629.95193409 -64.01767495 1623.91637573 C-64.01654096 1614.88075776 -64.02111606 1605.84514889 -64.02680579 1596.80953296 C-64.03632494 1581.41181127 -64.04102617 1566.0140914 -64.04311513 1550.61636706 C-64.0452423 1535.00567334 -64.04949895 1519.39498242 -64.05635785 1503.78429003 C-64.05678847 1502.79937944 -64.05721908 1501.81446885 -64.05766274 1500.79971248 C-64.05942106 1496.78849934 -64.0611907 1492.7772862 -64.06297576 1488.76607307 C-64.08458486 1440.11363248 -64.0954559 1391.46119133 -64.104452 1342.80874704 C-64.10738524 1327.03360887 -64.11075503 1311.25847084 -64.11441921 1295.48333283 C-64.11467751 1294.37070374 -64.1149358 1293.25807464 -64.11520191 1292.11172951 C-64.11624812 1287.61056941 -64.11729654 1283.10940931 -64.11834774 1278.60824921 C-64.13631306 1201.61419855 -64.15169275 1124.62014767 -64.15910677 1047.62609522 C-64.15969074 1041.57722196 -64.16028801 1035.52834871 -64.16088438 1029.47947545 C-64.1610025 1028.27955962 -64.16112062 1027.07964378 -64.16124232 1025.84336686 C-64.16243973 1013.68634206 -64.16364848 1001.52931725 -64.16487486 989.37229245 C-64.16512009 986.93475557 -64.16536395 984.49721868 -64.16560642 982.05968179 C-64.17339678 903.76872737 -64.19578116 825.47778792 -64.22828285 747.18684005 C-64.25162545 690.93959476 -64.2731788 634.69235245 -64.28028917 578.44510241 C-64.28043619 577.28857632 -64.28058321 576.13205023 -64.28073468 574.94047789 C-64.28391937 549.55286647 -64.28597036 524.16525509 -64.28696223 498.77764349 C-64.28737698 488.5628733 -64.28793188 478.34810311 -64.28852414 468.13333293 C-64.28858481 467.01537795 -64.28864548 465.89742297 -64.28870799 464.74559057 C-64.29072472 428.72050342 -64.30496863 392.69543396 -64.32546915 356.67035299 C-64.3460432 320.3873897 -64.35394779 284.10444685 -64.34439138 247.82147831 C-64.34307291 242.80860032 -64.34189487 237.79572231 -64.34080075 232.78284426 C-64.34058091 231.80017365 -64.34036106 230.81750304 -64.34013455 229.80505454 C-64.33701922 214.24002003 -64.34735066 198.6750246 -64.3632763 183.10999915 C-64.37865461 167.80771709 -64.37978584 152.50548913 -64.36572807 137.2032052 C-64.35791342 128.23026892 -64.36104367 119.25749787 -64.38036523 110.28457808 C-64.39210741 104.32361529 -64.38931094 98.3627731 -64.37475059 92.40181683 C-64.36690446 89.02365299 -64.36739989 85.64607469 -64.38136962 82.26789205 C-64.47861367 57.116015 -60.90407495 37.93740115 -42.85445165 19.01328059 C-31.73025832 8.40409621 -15.60951409 0.00574081 0 0 Z M301.69242335 335.87656184 C301.03048976 336.22726741 300.36855616 336.57797297 299.68656398 336.93930598 C284.32637625 345.28829909 273.92873041 357.87192578 267.99711085 374.25546809 C264.98537165 384.7673151 264.98520983 395.20064525 264.99849559 406.04330989 C264.99684476 407.68329781 264.99475794 409.32328535 264.99227548 410.96327223 C264.98671441 415.47957679 264.98738023 419.99586236 264.98905307 424.51216925 C264.98978438 429.42206048 264.98476074 434.33194636 264.98047806 439.24183531 C264.97289802 448.98436396 264.97070499 458.72688712 264.970149 468.46941841 C264.96923537 480.13727442 264.96256786 491.80512536 264.95580218 503.47297918 C264.94012129 531.00451457 264.93405375 558.53604936 264.92939515 586.06758843 C264.92701135 600.07650135 264.92330776 614.08541383 264.91935805 628.0943264 C264.90669399 673.03701015 264.89591011 717.97969388 264.89251759 762.92237939 C264.89235535 765.07011944 264.89218979 767.2178595 264.89202321 769.36559955 C264.89168941 773.67287717 264.89135893 777.98015478 264.89102865 782.28743239 C264.89064175 787.33013494 264.89025215 792.37283749 264.88985759 797.41554005 C264.88974517 798.8587986 264.88963375 800.30205715 264.88952333 801.7453157 C264.88597416 848.09447647 264.87089656 894.44362173 264.84758559 940.79277658 C264.83084068 974.10013367 264.81536756 1007.40748784 264.81085063 1040.71484919 C264.81075714 1041.40003605 264.81066366 1042.0852229 264.81056734 1042.791173 C264.80854815 1057.8338373 264.80739222 1072.87650156 264.80703875 1087.919166 C264.80690258 1093.30197157 264.80669359 1098.68477713 264.8064455 1104.0675827 C264.80638394 1105.4066672 264.80632562 1106.74575169 264.80627055 1108.08483619 C264.80532287 1130.06890998 264.79446363 1152.05296384 264.77946604 1174.03703154 C264.76510443 1195.45918511 264.76186218 1216.8813181 264.76990602 1238.30347516 C264.77436377 1251.03100471 264.7704958 1263.75846787 264.75466752 1276.4859887 C264.74491997 1284.98993979 264.74609365 1293.49384434 264.75610374 1301.997795 C264.76149732 1306.84163737 264.7622008 1311.68535223 264.74959502 1316.52918406 C264.73820424 1320.94305835 264.74083702 1325.3567021 264.7542621 1329.77056864 C264.75668098 1331.3503882 264.75416607 1332.93022584 264.74586562 1334.51002545 C264.68119594 1347.69399746 265.30584734 1361.71050372 271.81742335 1373.50156184 C272.16700099 1374.16164241 272.51657862 1374.82172297 272.87674952 1375.50180598 C281.7115325 1391.69197652 295.28862571 1402.34263531 312.7353921 1407.96640559 C323.36152126 1410.54300682 334.42092914 1410.27135404 345.27714968 1410.2579896 C346.91776318 1410.25964129 348.55837629 1410.2617285 350.19898874 1410.26420971 C354.70770605 1410.26975966 359.21640431 1410.26910701 363.72512394 1410.26743212 C368.63026713 1410.26669972 373.53540501 1410.27172698 378.44054592 1410.27600713 C388.1693783 1410.28358077 397.89820519 1410.28577987 407.62704021 1410.28633619 C419.28011471 1410.28725044 430.93318413 1410.29391976 442.58625645 1410.30068301 C470.08038923 1410.31635706 497.5745214 1410.32243045 525.06865787 1410.32709004 C539.72642386 1410.32958815 554.38418935 1410.33355689 569.04195496 1410.33769194 C613.26193593 1410.35010799 657.48191685 1410.3606249 701.70189953 1410.3639676 C703.84658858 1410.36412984 705.99127763 1410.3642954 708.13596668 1410.36446198 C712.43708862 1410.36479578 716.73821057 1410.36512626 721.03933252 1410.36545654 C726.07477382 1410.36584344 731.11021512 1410.36623304 736.14565643 1410.3666276 C737.58683363 1410.36674002 739.02801083 1410.36685144 740.46918804 1410.36696186 C786.7563275 1410.3705114 833.04345144 1410.38559113 879.33058498 1410.4088996 C912.59704783 1410.42564457 945.86350774 1410.44111757 979.12997485 1410.44563456 C979.81431153 1410.44572805 980.49864822 1410.44582153 981.20372237 1410.44591785 C996.22762765 1410.44793703 1011.25153288 1410.44909297 1026.27543829 1410.44944644 C1031.65147338 1410.44958261 1037.02750846 1410.4497916 1042.40354355 1410.45003969 C1043.74093483 1410.45010125 1045.07832611 1410.45015957 1046.41571738 1410.45021464 C1068.37094033 1410.45116228 1090.32614123 1410.46202094 1112.28135812 1410.47701915 C1133.67414221 1410.49138056 1155.06690569 1410.4946231 1176.45969328 1410.48657917 C1189.16945882 1410.48212147 1201.87915789 1410.48598922 1214.58891471 1410.50181767 C1223.08095391 1410.51156527 1231.57294652 1410.51039149 1240.06498529 1410.50038145 C1244.90198893 1410.49498795 1249.73886488 1410.49428415 1254.57585796 1410.50689017 C1258.98350224 1410.51828119 1263.39091567 1410.51564792 1267.7985522 1410.50222309 C1269.37611183 1410.49980427 1270.95368956 1410.5023189 1272.53122921 1410.51061957 C1285.75478138 1410.57557793 1299.75400195 1409.93262592 1311.56742335 1403.37656184 C1312.56032374 1402.85050349 1312.56032374 1402.85050349 1313.57328273 1402.3138177 C1328.93347045 1393.96482459 1339.33111629 1381.38119789 1345.26273585 1364.99765559 C1347.69874503 1356.49527403 1348.27989963 1348.08694436 1348.29105616 1339.29257746 C1348.29602107 1338.34175288 1348.30098597 1337.39092829 1348.30610133 1336.41129084 C1348.32062948 1333.28512362 1348.32751068 1330.15900719 1348.33304835 1327.03281184 C1348.33728942 1325.41888797 1348.33728942 1325.41888797 1348.34161616 1323.77235957 C1348.35657392 1318.07401828 1348.36582389 1312.37570206 1348.37015773 1306.67734309 C1348.3756253 1300.83189579 1348.39962708 1294.98668341 1348.42812968 1289.14130946 C1348.44688573 1284.61129655 1348.4519686 1280.08133866 1348.4534936 1275.55129023 C1348.45649343 1273.39861813 1348.46442995 1271.24594636 1348.47767878 1269.09331294 C1348.61475092 1245.10257252 1345.71193009 1224.72086997 1328.94242335 1206.37656184 C1313.34252943 1191.8625074 1294.92721347 1187.79335688 1274.14383555 1187.88046618 C1272.76380059 1187.87898363 1271.38376634 1187.87662299 1270.00373418 1187.87347319 C1266.22792516 1187.86737452 1262.45222498 1187.87365229 1258.67642412 1187.88202945 C1254.56256209 1187.88892991 1250.4487105 1187.88415018 1246.33484627 1187.88087447 C1239.13046941 1187.87673564 1231.92612565 1187.87999976 1224.72175265 1187.88815089 C1214.00917436 1187.90023751 1203.29661686 1187.90082096 1192.58403299 1187.89906691 C1174.56242517 1187.89644096 1156.54083202 1187.90311492 1138.51922847 1187.91510173 C1120.67735456 1187.92693855 1102.83548677 1187.93463418 1084.99360896 1187.93680735 C1083.88397006 1187.93694483 1082.77433117 1187.93708231 1081.63106685 1187.93722396 C1075.99569839 1187.93790063 1070.36032991 1187.93850339 1064.72496144 1187.93907771 C1024.81681307 1187.94327776 984.90867269 1187.95675034 945.00052882 1187.97568293 C906.23197455 1187.99405367 867.46342249 1188.00818616 828.69486476 1188.01669856 C826.25667895 1188.01723984 823.81849314 1188.01778125 821.38030732 1188.01832278 C801.56880684 1188.02270037 781.75730629 1188.02678551 761.94580572 1188.03079975 C670.34050403 1188.04957179 578.73522318 1188.08971337 487.12992335 1188.12656184 C487.12992335 977.91656184 487.12992335 767.70656184 487.12992335 551.12656184 C544.70589991 551.16136653 602.28187648 551.19617121 661.6025796 551.23203059 C695.82053868 551.24643755 730.0384954 551.26064059 764.25645555 551.27105673 C784.32236315 551.27718035 804.3882707 551.28344411 824.45417812 551.29013982 C826.88129895 551.29094934 829.30841978 551.29175446 831.73554061 551.2925551 C870.42721537 551.30535513 909.11887696 551.32786609 947.81054377 551.3554535 C987.57705457 551.38375578 1027.3435581 551.40221922 1067.11007881 551.40830681 C1072.72710564 551.40917127 1078.34413244 551.41014818 1083.96115924 551.41119357 C1085.06666828 551.41139584 1086.17217732 551.41159811 1087.31118663 551.4118065 C1105.10524091 551.41535135 1122.89927269 551.42926471 1140.6933178 551.44705794 C1158.58329505 551.46472573 1176.47325 551.47146425 1194.36323567 551.46706597 C1204.99135481 551.46478465 1215.61939233 551.47086385 1226.24749673 551.48895447 C1233.35104318 551.50021935 1240.45453631 551.5005421 1247.55808648 551.49205728 C1251.60305314 551.48753637 1255.64786566 551.4876878 1259.69281568 551.50121139 C1263.38073733 551.51344716 1267.06838607 551.51158017 1270.75630404 551.49898177 C1272.69095305 551.49586537 1274.62560931 551.50733173 1276.56022201 551.51958727 C1288.15192595 551.45338342 1300.11854142 550.05990381 1310.44242335 544.43906184 C1311.43822413 543.91578303 1311.43822413 543.91578303 1312.4541421 543.38193293 C1327.75371565 535.09590417 1338.37193264 522.31258947 1343.92161036 505.76613398 C1347.1078281 494.13791471 1346.58344093 482.28516645 1346.5635171 470.32187434 C1346.56808672 467.91016021 1346.5733946 465.49844738 1346.5794015 463.0867364 C1346.58830119 458.04868797 1346.58594545 453.01079833 1346.57596827 447.97275325 C1346.56448517 441.55217173 1346.58469693 435.13214076 1346.61388541 428.7116315 C1346.63232977 423.73556639 1346.63193852 418.7596312 1346.62624789 413.78354045 C1346.62609567 411.41792438 1346.63205675 409.05229894 1346.64453936 406.6867158 C1346.75251929 382.87202664 1343.1631522 364.84875816 1326.37992335 347.00156184 C1309.58396618 330.78588725 1288.51473412 328.80431717 1266.38307524 328.87208625 C1264.73833871 328.869691 1263.09360326 328.86642237 1261.44886998 328.86236965 C1256.951996 328.85380005 1252.45520615 328.85755499 1247.95833101 328.86342537 C1243.0573547 328.86761261 1238.15639327 328.86018417 1233.25542063 328.85427286 C1224.67324158 328.84552402 1216.09108639 328.84419407 1207.50890399 328.84777613 C1194.74673818 328.85308878 1181.98459542 328.84698221 1169.22243212 328.8386932 C1145.10294473 328.82345807 1120.98346786 328.82174759 1096.86397667 328.82421623 C1078.90701144 328.82598354 1060.95004934 328.8246004 1042.99308436 328.8204532 C1039.64979299 328.81968245 1036.30650162 328.81893772 1032.96321024 328.81818818 C1031.62136793 328.81788649 1030.27952563 328.81758461 1028.93768332 328.81728254 C1028.27254638 328.81713286 1027.60740945 328.81698318 1026.92211685 328.81682897 C1025.57670346 328.81652543 1024.23129006 328.81622075 1022.88587666 328.81591492 C984.72226114 328.80724466 946.55864689 328.80259605 908.39503051 328.80686255 C907.68869555 328.80694061 906.98236059 328.80701867 906.25462155 328.80709909 C898.37860603 328.80797185 890.50259052 328.80890112 882.62657501 328.80984972 C881.91551445 328.80993523 881.2044539 328.81002074 880.47184605 328.81010884 C876.15848082 328.81062763 876.15848082 328.81062763 871.84511558 328.81115107 C826.35923297 328.81668734 780.87337065 328.80914212 735.38749171 328.7903802 C723.9245811 328.78565784 712.46167048 328.78097727 700.99875975 328.77654334 C699.93998122 328.77613335 699.93998122 328.77613335 698.85981323 328.77571509 C677.10025801 328.76734203 655.34070449 328.76266397 633.58114768 328.76183577 C632.89786253 328.76180941 632.21457737 328.76178304 631.51058661 328.76175587 C616.51000857 328.76121506 601.50943067 328.76158762 586.50885268 328.76279559 C581.14131077 328.7632212 575.77376886 328.76358633 570.40622694 328.76392503 C569.07097065 328.76401033 567.73571436 328.76409927 566.40045807 328.76419185 C545.79884029 328.7655947 525.19723778 328.75919927 504.5956235 328.74824115 C481.92665916 328.73619566 459.25772197 328.73462277 436.58875723 328.74703131 C423.90340743 328.7536642 411.21812251 328.75201887 398.53277789 328.7384428 C390.05718776 328.73020353 381.58164629 328.73288909 373.10606013 328.74441807 C368.2785421 328.75067952 363.45115076 328.75226217 358.62364002 328.74055473 C354.22466087 328.72998486 349.82591527 328.7334302 345.42694847 328.74765926 C343.85253907 328.75036894 342.27811066 328.74815087 340.70371925 328.74015211 C327.48911037 328.67764226 313.4971007 329.32535043 301.69242335 335.87656184 Z " fill="#FECD00" transform="translate(93.87007664889097,30.8734381608665)"/>
</svg>
